<?xml version="1.0" encoding="utf-8"?>
<svg style="fill: rgb(185, 185, 185);" viewBox="239.919 80 400 400" xmlns="http://www.w3.org/2000/svg">
  <path d="M 279.0499206542969 144.39114685058593 Q 279.0499206542969 146.92747497558594 278.0001159667969 148.27122497558594 Q 276.9503112792969 149.61497497558594 274.92628784179686 149.61497497558594 Q 272.9274597167969 149.61497497558594 271.8692565917969 148.29642028808593 Q 270.81105346679686 146.97786560058594 270.7858581542969 144.51712341308593 L 270.7858581542969 142.26634216308594 Q 270.7858581542969 139.70481872558594 271.8482604980469 138.37786560058595 Q 272.91066284179686 137.05091247558593 274.90949096679685 137.05091247558593 Q 276.9083190917969 137.05091247558593 277.9665222167969 138.36526794433593 Q 279.02472534179685 139.67962341308595 279.0499206542969 142.14036560058594 Z M 276.6227722167969 141.92200622558593 Q 276.6227722167969 140.40188903808593 276.20704956054686 139.70901794433593 Q 275.79132690429685 139.01614685058593 274.90949096679685 139.01614685058593 Q 274.0528503417969 139.01614685058593 273.64552612304686 139.67542419433593 Q 273.2382019042969 140.33470153808594 273.2130065917969 141.73724060058595 L 273.2130065917969 144.71028747558594 Q 273.2130065917969 146.20520935058593 273.6203308105469 146.93167419433593 Q 274.02765502929685 147.65813903808595 274.92628784179686 147.65813903808595 Q 275.8165222167969 147.65813903808595 276.21124877929685 146.96106872558593 Q 276.60597534179686 146.26399841308594 276.6227722167969 144.82786560058594 Z" transform="matrix(11.280233383178711, 0, 0, 11.369781494140625, -2755.527587890625, -1463.33251953125)" style="white-space: pre;"/>
  <path d="M 351.52679443359375 105.81309814453125 Q 350.57777099609376 106.74532470703124 349.3096069335937 106.74532470703124 Q 347.68870849609374 106.74532470703124 346.71448974609376 105.63253173828124 Q 345.7402709960937 104.51973876953124 345.7402709960937 102.63009033203124 Q 345.7402709960937 101.42911376953126 346.2651733398437 100.42550048828124 Q 346.7900756835937 99.42188720703125 347.73070068359374 98.86339111328125 Q 348.67132568359375 98.30489501953124 349.84710693359375 98.30489501953124 Q 351.0564819335938 98.30489501953124 351.9971069335937 98.90958251953126 Q 352.93773193359374 99.51427001953125 353.45843505859375 100.64805908203125 Q 353.97913818359376 101.78184814453125 353.98753662109374 103.24317626953125 L 353.98753662109374 104.14180908203124 Q 353.98753662109374 107.19884033203125 352.46741943359376 108.94571533203126 Q 350.9473022460937 110.69259033203124 348.1590209960938 110.81016845703125 L 347.56273193359374 110.81856689453124 L 347.56273193359374 108.79454345703125 L 348.10023193359376 108.78614501953125 Q 351.2664428710938 108.64337158203125 351.52679443359375 105.81309814453125 Z M 349.90589599609376 104.88927001953125 Q 350.49378662109376 104.88927001953125 350.91790771484375 104.58692626953125 Q 351.34202880859374 104.28458251953126 351.5603881835938 103.85626220703125 L 351.5603881835938 102.85684814453126 Q 351.5603881835938 101.62227783203124 351.09007568359374 100.94200439453125 Q 350.61976318359376 100.26173095703125 349.83031005859374 100.26173095703125 Q 349.0996459960937 100.26173095703125 348.62933349609375 100.92940673828124 Q 348.1590209960938 101.59708251953126 348.1590209960938 102.60489501953126 Q 348.1590209960938 103.60430908203125 348.6167358398437 104.24678955078124 Q 349.07445068359374 104.88927001953125 349.90589599609376 104.88927001953125 Z" transform="matrix(12.414874076843262, 0, 0, 11.410667419433594, -3993.354248046875, -792.51416015625)" style="white-space: pre;"/>
  <path transform="matrix(12.414874076843262, 0, 0, 11.410667419433594, -3993.354248046875, -792.51416015625)" style="white-space: pre;"/>
  <path style="stroke: rgb(0, 0, 0);" d="M -544.608 -460 H -520.504 A 10 10 0 0 1 -510.504 -450 V -206.401 H -554.608 V -450 A 10 10 0 0 1 -544.608 -460 Z" transform="matrix(-1, 0, 0, -1, 0, 0)"/>
  <path d="M -536.417 103.859 Q -532.557 96.141 -528.698 103.859 L -481.286 198.684 Q -477.427 206.402 -485.145 206.402 L -579.97 206.402 Q -587.688 206.402 -583.829 198.684 Z" style="stroke: rgb(0, 0, 0); paint-order: fill;" transform="matrix(-1, 0, 0, 1, 0, 0)"/>
</svg>