<?xml version="1.0" encoding="utf-8"?>
<svg style="fill: rgb(185, 185, 185);" viewBox="239.919 80 400 400" width="400" height="400" xmlns="http://www.w3.org/2000/svg">
  <path d="M 245 80 L 635 80 C 637.761 80 640 82.239 640 85 L 640 255 C 640 257.761 637.761 260 635 260 L 245 260 C 242.239 260 240 257.761 240 255 L 240 85 C 240 82.239 242.239 80 245 80 Z M 280 125 L 280 215 C 280 217.761 282.239 220 285 220 L 595 220 C 597.761 220 600 217.761 600 215 L 600 125 C 600 122.239 597.761 120 595 120 L 285 120 C 282.239 120 280 122.239 280 125 Z" style="stroke: rgb(0, 0, 0);"/>
  <path d="M 244.919 300 L 634.919 300 C 637.68 300 639.919 302.239 639.919 305 L 639.919 475 C 639.919 477.761 637.68 480 634.919 480 L 244.919 480 C 242.158 480 239.919 477.761 239.919 475 L 239.919 305 C 239.919 302.239 242.158 300 244.919 300 Z M 279.919 345 L 279.919 435 C 279.919 437.761 282.158 440 284.919 440 L 594.919 440 C 597.68 440 599.919 437.761 599.919 435 L 599.919 345 C 599.919 342.239 597.68 340 594.919 340 L 284.919 340 C 282.158 340 279.919 342.239 279.919 345 Z" style="stroke: rgb(0, 0, 0);"/>
</svg>