<?xml version="1.0" encoding="utf-8"?>
<svg style="fill: rgb(185, 185, 185);" viewBox="239.919 80 400 400" width="400" height="400" xmlns="http://www.w3.org/2000/svg">
  <rect style="stroke: rgb(0, 0, 0);" width="230" height="120.93" rx="5" ry="5" x="240" y="80"/>
  <rect style="stroke: rgb(0, 0, 0);" x="479.919" width="160" height="20.001" rx="5" ry="5" y="90"/>
  <rect style="stroke: rgb(0, 0, 0);" x="480.081" width="159.919" height="20.001" rx="5" ry="5" y="129.998"/>
  <rect style="stroke: rgb(0, 0, 0);" x="480.081" width="159.919" height="20.001" rx="5" ry="5" y="169.999"/>
  <rect style="stroke: rgb(0, 0, 0);" width="230" height="120.93" rx="5" ry="5" y="219.535" x="240"/>
  <rect style="stroke: rgb(0, 0, 0);" width="230" height="120.93" rx="5" ry="5" y="359.07" x="240"/>
  <rect style="stroke: rgb(0, 0, 0);" x="479.838" width="160" height="20.001" rx="5" ry="5" y="230"/>
  <rect style="stroke: rgb(0, 0, 0);" x="480" width="159.919" height="20.001" rx="5" ry="5" y="269.998"/>
  <rect style="stroke: rgb(0, 0, 0);" x="480" width="159.919" height="20.001" rx="5" ry="5" y="309.999"/>
  <rect style="stroke: rgb(0, 0, 0);" x="479.757" width="160" height="20.001" rx="5" ry="5" y="370"/>
  <rect style="stroke: rgb(0, 0, 0);" x="479.919" width="159.919" height="20.001" rx="5" ry="5" y="409.998"/>
  <rect style="stroke: rgb(0, 0, 0);" x="479.919" width="159.919" height="20.001" rx="5" ry="5" y="449.999"/>
</svg>